<svg width="16" height="16" viewBox="0 0 16 16" fill="none" xmlns="http://www.w3.org/2000/svg">
<g opacity="0.3">
<path fill-rule="evenodd" clip-rule="evenodd" d="M14.6663 7.99992C14.6663 11.6818 11.6816 14.6666 7.99967 14.6666C4.31778 14.6666 1.33301 11.6818 1.33301 7.99992C1.33301 4.31802 4.31778 1.33325 7.99967 1.33325C11.6816 1.33325 14.6663 4.31802 14.6663 7.99992ZM10.4711 6.47132C10.7314 6.21097 10.7314 5.78886 10.4711 5.52851C10.2107 5.26816 9.78862 5.26816 9.52827 5.52851L7.99967 7.05711L6.47108 5.52851C6.21073 5.26816 5.78862 5.26816 5.52827 5.52851C5.26792 5.78886 5.26792 6.21097 5.52827 6.47132L7.05687 7.99992L5.52827 9.52851C5.26792 9.78886 5.26792 10.211 5.52827 10.4713C5.78862 10.7317 6.21073 10.7317 6.47108 10.4713L7.99967 8.94273L9.52827 10.4713C9.78862 10.7317 10.2107 10.7317 10.4711 10.4713C10.7314 10.211 10.7314 9.78886 10.4711 9.52851L8.94248 7.99992L10.4711 6.47132Z" fill="#333333"/>
</g>
</svg>
