<svg width="20" height="20" viewBox="0 0 20 20" fill="none" xmlns="http://www.w3.org/2000/svg">
<rect x="0.5" y="0.5" width="19" height="19" rx="2.5" fill="#7397F5"/>
<rect x="0.5" y="0.5" width="19" height="19" rx="2.5" stroke="#7397F5"/>
<path d="M13.7125 6.21248C13.8885 6.04484 14.1229 5.95217 14.366 5.95401C14.6091 5.95585 14.842 6.05206 15.0155 6.22234C15.189 6.39263 15.2896 6.62366 15.2961 6.8667C15.3025 7.10974 15.2142 7.34577 15.05 7.52498L10.0625 13.7625C9.97669 13.8549 9.87318 13.929 9.75812 13.9804C9.64305 14.0319 9.51879 14.0596 9.39277 14.062C9.26674 14.0643 9.14154 14.0412 9.02465 13.994C8.90776 13.9469 8.80158 13.8766 8.71245 13.7875L5.40495 10.48C5.31284 10.3942 5.23897 10.2907 5.18773 10.1757C5.13649 10.0607 5.10893 9.93652 5.10671 9.81064C5.10449 9.68476 5.12765 9.55972 5.1748 9.44299C5.22195 9.32625 5.29213 9.22021 5.38116 9.13119C5.47018 9.04216 5.57622 8.97198 5.69296 8.92483C5.80969 8.87768 5.93473 8.85452 6.06061 8.85674C6.18648 8.85896 6.31063 8.88652 6.42563 8.93776C6.54062 8.989 6.64413 9.06287 6.72995 9.15498L9.34745 11.7712L13.6887 6.23998C13.6965 6.23036 13.7049 6.22118 13.7137 6.21248H13.7125Z" fill="white"/>
</svg>
