<svg width="333" height="200" viewBox="0 0 333 200" fill="none" xmlns="http://www.w3.org/2000/svg">
<rect width="333" height="200" fill="#F8F8FA"/>
<g opacity="0.5" clip-path="url(#clip0_9709_1426)">
<path fill-rule="evenodd" clip-rule="evenodd" d="M195.23 81.1487C195.752 81.3571 196.2 81.7171 196.515 82.1823C196.831 82.6476 197 83.1966 197 83.7587V116.241C197 116.803 196.831 117.352 196.515 117.818C196.2 118.283 195.752 118.643 195.23 118.851L168.043 129.726C167.372 129.994 166.624 129.994 165.954 129.726L138.766 118.851C138.245 118.642 137.798 118.282 137.483 117.817C137.168 117.352 137 116.803 137 116.241V83.7587C137 83.1971 137.168 82.6483 137.483 82.1831C137.798 81.718 138.245 81.3577 138.766 81.1487L164.911 70.69L164.949 70.6787L165.954 70.2737C166.625 70.0046 167.375 70.0046 168.046 70.2737L169.055 70.6787L169.092 70.69L195.23 81.1487V81.1487ZM176.015 77.5L152.938 86.7287L143.923 83.125L140.75 84.3962V85.8962L165.125 95.6462V125.354L167 126.104L168.875 125.354V95.65L193.25 85.9V84.4L190.078 83.1287L167 92.3537L157.985 88.75L181.063 79.5212L176.015 77.5Z" fill="#A6A9C7"/>
</g>
<defs>
<clipPath id="clip0_9709_1426">
<rect width="60" height="60" fill="white" transform="translate(137 70)"/>
</clipPath>
</defs>
</svg>
